HIERARCHY
ROOT SpineBase
{
  OFFSET 0.000000 0.000000 0.000000
  CHANNELS 6 Xposition Yposition Zposition Zrotation Xrotation Yrotation
  JOINT SpineMid
  {
    OFFSET 0.000000 26.072700 0.000000
    CHANNELS 3 Zrotation Xrotation Yrotation
    JOINT SpineShoulder
    {
      OFFSET -0.261291 19.605056 -0.448782
      CHANNELS 3 Zrotation Xrotation Yrotation
      JOINT Neck
      {
        OFFSET -0.095754 6.552413 -0.446995
        CHANNELS 3 Zrotation Xrotation Yrotation
        JOINT Head
        {
          OFFSET 1.526618 14.714830 -2.510604
          CHANNELS 3 Zrotation Xrotation Yrotation
          End Site
          {
            OFFSET 0 0 0
          }
        }
      }
      JOINT ShoulderLeft
      {
        OFFSET -10.888126 -0.563978 -10.062721
        CHANNELS 3 Zrotation Xrotation Yrotation
        JOINT ElbowLeft
        {
          OFFSET 2.760343 -21.868219 -9.522494
          CHANNELS 3 Zrotation Xrotation Yrotation
          JOINT WristLeft
          {
            OFFSET 13.504585 -10.370058 -12.724460
            CHANNELS 3 Zrotation Xrotation Yrotation
            JOINT HandLeft
            {
              OFFSET 5.169422 -3.755316 -3.821012
              CHANNELS 3 Zrotation Xrotation Yrotation
              JOINT HandTipLeft
              {
                OFFSET 4.713121 -4.163480 -3.620000
                CHANNELS 3 Zrotation Xrotation Yrotation
                End Site
                {
                  OFFSET 0 0 0
                }
              }
              JOINT ThumbLeft
              {
                OFFSET 1.723230 3.761277 -2.299843
                CHANNELS 3 Zrotation Xrotation Yrotation
                End Site
                {
                  OFFSET 0 0 0
                }
              }
            }
          }
        }
      }
      JOINT ShoulderRight
      {
        OFFSET 14.761990 -0.320678 8.537265
        CHANNELS 3 Zrotation Xrotation Yrotation
        JOINT ElbowRight
        {
          OFFSET 13.346735 -21.978146 -5.102323
          CHANNELS 3 Zrotation Xrotation Yrotation
          JOINT WristRight
          {
            OFFSET 9.461504 -12.445323 -18.369753
            CHANNELS 3 Zrotation Xrotation Yrotation
            JOINT HandRight
            {
              OFFSET 2.273114 -3.440933 -5.597108
              CHANNELS 3 Zrotation Xrotation Yrotation
              JOINT HandTipRight
              {
                OFFSET 3.993273 -3.391356 -6.946756
                CHANNELS 3 Zrotation Xrotation Yrotation
                End Site
                {
                  OFFSET 0 0 0
                }
              }
              JOINT ThumbRight
              {
                OFFSET 3.171457 0.362105 -1.014986
                CHANNELS 3 Zrotation Xrotation Yrotation
                End Site
                {
                  OFFSET 0 0 0
                }
              }
            }
          }
        }
      }
    }
  }
  JOINT HipLeft
  {
    OFFSET -6.214921 1.326396 -6.020546
    CHANNELS 3 Zrotation Xrotation Yrotation
    JOINT KneeLeft
    {
      OFFSET 22.303789 4.804347 -27.914898
      CHANNELS 3 Zrotation Xrotation Yrotation
      JOINT AnkleLeft
      {
        OFFSET 4.668185 -35.435325 2.091446
        CHANNELS 3 Zrotation Xrotation Yrotation
        JOINT FootLeft
        {
          OFFSET 6.159359 -5.534216 -0.902846
          CHANNELS 3 Zrotation Xrotation Yrotation
          End Site
          {
            OFFSET 0 0 0
          }
        }
      }
    }
  }
  JOINT HipRight
  {
    OFFSET 7.040013 0.995901 -0.066692
    CHANNELS 3 Zrotation Xrotation Yrotation
    JOINT KneeRight
    {
      OFFSET 29.960215 7.054506 -22.569895
      CHANNELS 3 Zrotation Xrotation Yrotation
      JOINT AnkleRight
      {
        OFFSET -0.652765 -36.792326 3.952242
        CHANNELS 3 Zrotation Xrotation Yrotation
        JOINT FootRight
        {
          OFFSET 3.439195 -6.658285 -6.087168
          CHANNELS 3 Zrotation Xrotation Yrotation
          End Site
          {
            OFFSET 0 0 0
          }
        }
      }
    }
  }
}
MOTION
Frames: 5
Frame Time: 0.033333
-55.301337 34.935420 362.525868 -2.619020 -4.208536 -25.843183 -1.209936 -0.300761 25.653887 -0.565967 -0.414985 -0.219562 -0.417126 1.852491 -0.098659 0.000000 0.000000 0.000000 3.625327 7.810843 1.021813 3.587910 -4.356393 -5.133344 -5.600848 -2.247299 3.763624 25.591007 13.908602 -7.663268 0.000000 0.000000 0.000000 0.000000 0.000000 0.000000 21.149149 2.472976 -5.441422 -27.826191 18.043034 29.763913 5.128463 3.835984 -3.095789 -18.022702 -12.753645 20.241810 0.000000 0.000000 0.000000 0.000000 0.000000 0.000000 0.775326 6.242179 25.267701 3.570367 -0.293509 0.832713 -7.188071 35.035563 39.486447 0.000000 0.000000 0.000000 -4.467079 1.573098 13.615473 1.737928 16.649904 12.592646 14.659106 11.015303 1.050555 0.000000 0.000000 0.000000
-55.120097 34.970912 362.626101 -2.449015 -4.312897 -25.296846 -1.317603 -0.460626 25.111333 -0.436277 -0.442013 -0.215460 -0.345325 2.238106 -0.074119 0.000000 0.000000 0.000000 4.044336 7.525096 0.654370 5.011685 -0.981703 -3.428556 -1.021227 0.571710 2.773599 20.153947 7.842735 -7.807149 0.000000 0.000000 0.000000 0.000000 0.000000 0.000000 21.003740 2.735439 -5.500651 -30.806628 17.236565 34.051565 9.067775 5.538829 -4.905196 -28.165946 -23.896736 17.427601 0.000000 0.000000 0.000000 0.000000 0.000000 0.000000 0.622607 5.998836 25.117862 3.753156 -0.101868 0.436314 -7.403913 35.059711 39.612530 0.000000 0.000000 0.000000 -4.653109 1.595069 13.170654 1.687650 16.768127 12.510476 14.612042 10.956852 1.177089 0.000000 0.000000 0.000000
-54.863485 35.003349 362.643234 -2.147326 -4.321337 -24.544374 -1.340432 -0.668041 24.369347 -0.256789 -0.427332 -0.198656 -0.870179 2.499650 -0.093576 0.000000 0.000000 0.000000 2.753283 7.824115 1.150128 6.799880 0.641052 -2.616059 11.793587 11.968297 2.920165 7.840320 -6.414369 -9.356062 0.000000 0.000000 0.000000 0.000000 0.000000 0.000000 20.687394 3.074068 -5.511056 -32.694931 16.287792 36.585903 11.136050 6.506189 -5.539614 -37.911754 -33.100459 9.449202 0.000000 0.000000 0.000000 0.000000 0.000000 0.000000 0.593474 6.383702 24.698293 3.436219 -0.185189 0.164443 -7.460741 34.774159 39.601293 0.000000 0.000000 0.000000 -4.937044 1.495543 12.435915 1.617159 16.833576 12.514992 14.659330 10.970773 1.259419 0.000000 0.000000 0.000000
-54.720478 34.993933 362.640431 -2.145338 -4.231717 -23.985515 -1.307173 -0.836505 23.805272 -0.321915 -0.283191 -0.195309 0.213851 2.057925 0.038139 0.000000 0.000000 0.000000 2.301628 7.682195 1.437937 7.841903 1.704418 -2.184299 21.254377 16.696747 -0.727155 -0.860409 -11.362131 -7.933672 0.000000 0.000000 0.000000 0.000000 0.000000 0.000000 20.874306 3.178797 -5.448753 -34.063675 14.806722 38.154564 9.748779 6.889681 -3.573956 -34.725966 -31.468099 3.161842 0.000000 0.000000 0.000000 0.000000 0.000000 0.000000 0.595151 5.775660 24.463246 3.732511 -0.099599 -0.208581 -7.509113 35.103795 39.698996 0.000000 0.000000 0.000000 -4.959571 1.368495 11.846700 1.604556 16.855482 12.544333 14.754143 11.021406 1.279843 0.000000 0.000000 0.000000
-54.418635 35.007094 362.572768 -1.808948 -4.091265 -23.623764 -1.359739 -1.041371 23.460253 -0.237393 -0.299675 -0.183495 0.243670 1.969533 0.078006 0.000000 0.000000 0.000000 1.798066 7.685930 1.539452 9.803700 3.374698 -2.258891 20.200251 11.723605 -3.295616 -1.181463 -6.358632 -3.767298 0.000000 0.000000 0.000000 0.000000 0.000000 0.000000 20.712194 3.304116 -5.469579 -34.456273 13.613181 38.234664 6.923512 6.260735 -1.288133 -33.220115 -31.014341 -2.544628 0.000000 0.000000 0.000000 0.000000 0.000000 0.000000 0.117773 4.229194 24.707114 4.733556 0.432870 -0.872778 -7.693127 35.620824 39.767708 0.000000 0.000000 0.000000 -5.335655 0.942686 11.495607 1.767521 17.002196 12.533046 14.843774 11.086836 1.238891 0.000000 0.000000 0.000000
